HIERARCHY
ROOT Hips
{
	OFFSET 0.00000 0.00000 0.00000
	CHANNELS 6 Xposition Yposition Zposition Zrotation Yrotation Xrotation 
	JOINT LHipJoint
	{
		OFFSET 0 0 0
		CHANNELS 3 Zrotation Yrotation Xrotation
		JOINT LeftHip
		{
			OFFSET 1.86795 -1.59681 0.65681
			CHANNELS 3 Zrotation Yrotation Xrotation
			JOINT LeftKnee
			{
				OFFSET 2.30491 -6.33268 0.00000
				CHANNELS 3 Zrotation Yrotation Xrotation
				JOINT LeftAnkle
				{
					OFFSET 2.46780 -6.78022 0.00000
					CHANNELS 3 Zrotation Yrotation Xrotation
					JOINT LeftToe
					{
						OFFSET 0.07897 -0.21698 1.59652
						CHANNELS 3 Zrotation Yrotation Xrotation
						End Site
						{
							OFFSET 0.00000 -0.00000 0.82310
						}
					}
				}
			}
		}
	}
	JOINT RHipJoint
	{
		OFFSET 0 0 0
		CHANNELS 3 Zrotation Yrotation Xrotation
		JOINT RightHip
		{
			OFFSET -1.93650 -1.59681 0.65681
			CHANNELS 3 Zrotation Yrotation Xrotation
			JOINT RightKnee
			{
				OFFSET -2.29410 -6.30299 0.00000
				CHANNELS 3 Zrotation Yrotation Xrotation
				JOINT RightAnkle
				{
					OFFSET -2.48738 -6.83403 0.00000
					CHANNELS 3 Zrotation Yrotation Xrotation
					JOINT RightToe
					{
						OFFSET -0.08699 -0.23899 1.89395
						CHANNELS 3 Zrotation Yrotation Xrotation
						End Site
						{
							OFFSET -0.00000 -0.00000 0.96904
						}
					}
				}
			}
		}
	}
	JOINT lowerback
	{
		OFFSET 0 0 0
		CHANNELS 3 Zrotation Yrotation Xrotation
		JOINT Chest
		{
			OFFSET 0.03629 1.99740 -0.07548
			CHANNELS 3 Zrotation Yrotation Xrotation
			JOINT Chest2
			{
				OFFSET 0.03970 1.94298 0.17218
				CHANNELS 3 Zrotation Yrotation Xrotation
				JOINT lowerneck
				{
					OFFSET 0 0 0
					CHANNELS 3 Zrotation Yrotation Xrotation
					JOINT Neck
					{
						OFFSET -0.05054 1.79469 0.04241
						CHANNELS 3 Zrotation Yrotation Xrotation
						JOINT Head
						{
							OFFSET 0.05195 1.78475 -0.22133
							CHANNELS 3 Zrotation Yrotation Xrotation
							End Site
							{
								OFFSET 0.02420 1.80711 -0.07950
							}
						}
					}
				}
				JOINT LeftCollar
				{
					OFFSET 0 0 0
					CHANNELS 3 Zrotation Yrotation Xrotation
					JOINT LeftShoulder
					{
						OFFSET 2.92134 1.19850 0.36056
CHANNELS 3 Zrotation Xrotation Yrotation
						JOINT LeftElbow
						{
OFFSET 0 -4.841370 0.000000
CHANNELS 3 Zrotation Xrotation Yrotation
							JOINT LeftWrist
							{
OFFSET 0 -3.245200 -0.000000
CHANNELS 3 Zrotation Xrotation Yrotation
								JOINT lhand
								{
									OFFSET 0 0 0
CHANNELS 3 Zrotation Xrotation Yrotation
									JOINT LFingers
									{
OFFSET 0 -0.521220 0.000000
CHANNELS 3 Zrotation Xrotation Yrotation
										End Site
										{
OFFSET 0 -0.420220 0.000000
										}
									}
								}
								JOINT LThumb
								{
OFFSET 0 0.000000 0.000000
CHANNELS 3 Zrotation Xrotation Yrotation
									End Site
									{
OFFSET 0 -0.426640 0.426640
									}
								}
							}
						}
					}
				}
				JOINT RightCollar
				{
					OFFSET 0 0 0
					CHANNELS 3 Zrotation Yrotation Xrotation
					JOINT RightShoulder
					{
						OFFSET -2.84327 1.20795 0.50191
CHANNELS 3 Zrotation Xrotation Yrotation
						JOINT RightElbow
						{
OFFSET 0 -4.722840 0.000000
CHANNELS 3 Zrotation Xrotation Yrotation
							JOINT RightWrist
							{
OFFSET 0 -3.234590 0.000000
CHANNELS 3 Zrotation Xrotation Yrotation
								JOINT rhand
								{
									OFFSET 0 0 0
CHANNELS 3 Zrotation Xrotation Yrotation
									JOINT RFingers
									{
OFFSET 0 -0.307420 0.000000
CHANNELS 3 Zrotation Xrotation Yrotation
										End Site
										{
OFFSET 0 -0.247850 0.000000
										}
									}
								}
								JOINT RThumb
								{
OFFSET 0 0.000000 0.000000
CHANNELS 3 Zrotation Xrotation Yrotation
									End Site
									{
OFFSET 0 -0.251630 0.251630
									}
								}
							}
						}
					}
				}
			}
		}
	}
}
MOTION
Frames: 6
Frame Time: 0.008333333333333333
-0.254740 16.194868 -13.355654 3.952980 -46.198825 9.850898 0.000000 0.000000 0.000000 -22.639264 -22.204851 9.219338 0.011023 0.675221 1.855460 0.737595 -3.034882 -15.480711 0.136263 2.378434 6.552797 0.000000 0.000000 0.000000 0.970451 49.474274 -19.393422 -1.429171 -7.559266 21.383279 3.631753 -31.542566 -10.032786 -0.334608 3.704695 -10.248727 0.440133 4.024199 -7.949252 -1.101562 5.165343 -8.159934 -1.149943 2.475021 -3.895196 1.752514 9.811685 -6.163076 8.631312 11.455483 21.864756 3.407996 6.357117 7.302414 0.000000 0.000000 0.000000 35.406632 36.936726 -70.887331 19.797361 -30.397405 5.428427 -33.034998 -24.180012 -24.132483 0.000000 0.000000 0.000000 -7.125000 0.000000 0.000000 -55.434415 46.307978 2.622585 0.000000 0.000000 0.000000 -26.361756 -6.142081 79.155714 -15.037756 -24.198690 -3.241415 -9.089428 -44.292812 -20.567932 0.000000 0.000000 0.000000 7.125000 0.000000 0.000000 12.397581 9.553130 10.421694
-0.271993 16.192366 -13.349867 3.280616 -46.076466 10.434531 0.000000 0.000000 0.000000 -22.350745 -22.305349 7.610888 0.072547 1.737525 4.780840 0.888446 -4.605130 -16.860269 0.368522 3.899183 10.793228 0.000000 0.000000 0.000000 1.651890 49.123544 -19.295319 -1.378220 -7.428882 20.992483 3.670710 -32.074479 -6.863845 -0.692452 5.308704 -14.793540 0.945616 3.990024 -8.158372 -0.933125 5.096298 -8.163034 -1.242612 2.421077 -3.756617 1.549500 9.913061 -6.095734 8.789945 11.592974 21.919438 3.495101 6.421556 7.277582 0.000000 0.000000 0.000000 34.933698 36.859609 -70.079790 19.623754 -30.186386 5.340918 -31.914103 -22.969879 -23.843296 0.000000 0.000000 0.000000 -7.125000 0.000000 0.000000 -54.513596 46.284866 2.494294 0.000000 0.000000 0.000000 -26.837636 -6.228313 80.017729 -15.232381 -24.468808 -3.321630 -8.846228 -44.368751 -19.789124 0.000000 0.000000 0.000000 7.125000 0.000000 0.000000 12.553326 10.340172 10.354560
-0.308978 16.199759 -13.346850 3.125444 -46.161098 10.649519 0.000000 0.000000 0.000000 -22.143788 -21.730597 7.399277 0.076467 1.783490 4.907798 0.915173 -4.958628 -17.094719 0.260050 3.280155 9.059751 0.000000 0.000000 0.000000 1.855915 49.294614 -19.260586 -1.373672 -7.417216 20.957419 3.640987 -31.651372 -9.343338 -0.346947 3.695893 -10.231861 1.034561 3.912449 -8.288918 -0.854791 4.986217 -8.188185 -1.208499 2.363047 -3.713839 1.651079 10.025244 -6.177454 8.722026 11.727921 22.257612 3.491644 6.491090 7.410251 0.000000 0.000000 0.000000 34.822353 37.035379 -69.494816 19.338203 -29.836667 5.198061 -32.718612 -23.061471 -23.876281 0.000000 0.000000 0.000000 -7.125000 0.000000 0.000000 -55.027428 46.174620 2.326713 0.000000 0.000000 0.000000 -27.083587 -6.350244 80.739610 -15.335301 -24.611127 -3.364316 -9.171803 -45.234551 -18.985652 0.000000 0.000000 0.000000 7.125000 0.000000 0.000000 12.349176 11.103674 9.980435
-0.341922 16.210490 -13.355085 2.669345 -46.029225 10.937811 0.000000 0.000000 0.000000 -21.791975 -21.515930 6.709444 0.121774 2.249707 6.196283 0.952102 -5.925783 -17.408354 0.502135 4.542451 12.608133 0.000000 0.000000 0.000000 2.563370 49.150233 -18.818062 -1.325588 -7.291322 20.581480 3.649280 -31.649104 -9.738373 -0.332711 3.624636 -10.031939 1.159656 3.851676 -8.202940 -0.617366 4.907172 -8.149852 -1.041638 2.324691 -3.733257 1.262399 10.176172 -6.108819 9.173333 11.900560 22.312368 3.699399 6.585011 7.348785 0.000000 0.000000 0.000000 34.515292 36.879358 -68.909040 18.422893 -28.695199 4.750642 -32.149795 -21.672952 -23.795818 0.000000 0.000000 0.000000 -7.125000 0.000000 0.000000 -54.616602 46.210957 2.361799 0.000000 0.000000 0.000000 -27.215624 -6.271126 80.217508 -15.157250 -24.364648 -3.290545 -8.791774 -44.628196 -20.203920 0.000000 0.000000 0.000000 7.125000 0.000000 0.000000 12.586572 9.937054 10.488882
-0.372420 16.217948 -13.379554 2.685984 -46.099501 11.153334 0.000000 0.000000 0.000000 -21.754682 -21.298393 5.640423 0.179328 2.727783 7.521743 1.011298 -5.545778 -17.963842 0.176721 2.706930 7.463998 0.000000 0.000000 0.000000 2.418510 49.431085 -18.819152 -1.260140 -7.116031 20.059669 3.638582 -32.474892 -4.190205 -0.998851 6.360113 -17.832922 1.026220 3.977579 -8.049959 -0.671465 5.081259 -8.297125 -1.032901 2.413164 -3.976444 1.856625 10.167097 -5.931966 8.599585 11.934292 22.158801 3.416082 6.591728 7.350244 0.000000 0.000000 0.000000 34.822008 36.730339 -68.381240 17.765899 -27.856388 4.439357 -33.747748 -21.435555 -23.492271 0.000000 0.000000 0.000000 -7.125000 0.000000 0.000000 -55.306241 45.720716 1.452978 0.000000 0.000000 0.000000 -27.158201 -6.055745 79.726942 -14.962791 -24.094080 -3.210778 -8.457409 -43.933320 -19.891611 0.000000 0.000000 0.000000 7.125000 0.000000 0.000000 12.800896 10.272008 10.587417
-0.365723 16.217312 -13.461315 1.969258 -45.909152 11.885762 0.000000 0.000000 0.000000 -20.850943 -21.357650 4.189090 0.260921 3.286320 9.076876 1.070245 -6.730139 -18.467179 0.272149 3.354535 9.267553 0.000000 0.000000 0.000000 2.599056 49.456590 -19.185347 -1.155986 -6.826255 19.201696 3.692149 -31.903320 -8.765199 -0.205221 2.834162 -7.822589 1.623351 4.029693 -7.028463 -0.670719 5.149182 -8.591819 -1.446618 2.404249 -4.803859 1.595386 10.009999 -5.980338 9.068221 11.644493 22.317170 3.593156 6.476317 7.370668 0.000000 0.000000 0.000000 35.074084 36.448963 -67.913499 17.159362 -27.067266 4.159619 -31.189853 -19.375979 -23.380242 0.000000 0.000000 0.000000 -7.125000 0.000000 0.000000 -53.685702 46.065487 2.015922 0.000000 0.000000 0.000000 -27.387972 -5.997861 80.357204 -15.115936 -24.307342 -3.273542 -9.540594 -44.904914 -19.973925 0.000000 0.000000 0.000000 7.125000 0.000000 0.000000 12.110073 10.097986 10.031822
